<svg id="akeeba_logo" xmlns="http://www.w3.org/2000/svg" viewBox="0 0 430.48 141.12"><defs><style>.cls-1{fill:#525050;}.cls-2{fill:#39b6b8;}</style></defs><title>akeeba_4c</title><g id="_4c" data-name="4c"><path class="cls-1" d="M181.45,96.13a26.54,26.54,0,0,0,19.24-7.59l2.53,4.73a30.62,30.62,0,0,1-21.66,8.25c-18.47,0-29.58-12-29.58-27.93,0-15.39,10.56-28.15,27.6-28.15s28,13.19,26.28,31.23H157.92C159.24,88.54,167.82,96.13,181.45,96.13Zm18.91-24.52c-.44-12.42-8.47-20.78-20.67-20.78-12.54,0-21,8.36-21.88,20.78Z"/><path class="cls-1" d="M242,96.13a26.54,26.54,0,0,0,19.24-7.59l2.53,4.73a30.62,30.62,0,0,1-21.66,8.25c-18.47,0-29.58-12-29.58-27.93,0-15.39,10.56-28.15,27.6-28.15s28,13.19,26.28,31.23H218.51C219.83,88.54,228.41,96.13,242,96.13ZM261,71.61c-.44-12.42-8.47-20.78-20.67-20.78-12.54,0-21,8.36-21.88,20.78Z"/><path class="cls-1" d="M333.31,73.48c0,15.39-11.44,28-28.26,28-9.35,0-17.15-4-21.88-10.56v9.46h-5.83v-77h5.83V56C287.9,49.4,295.7,45.44,305,45.44,321.87,45.44,333.31,58.08,333.31,73.48Zm-5.94,0c0-13.08-9.24-22.65-23.09-22.65a23.76,23.76,0,0,0-21.11,11.77V84.36C287.46,91.62,294.93,96,304.28,96,318.13,96,327.37,86.56,327.37,73.48Z"/><path class="cls-1" d="M396.53,46.54v53.88h-5.83V91c-4.73,6.6-12.53,10.56-21.88,10.56-16.82,0-28.26-12.64-28.26-28s11.44-28,28.26-28c9.35,0,17.15,4,21.88,10.56V46.54Zm-5.83,16.05a23.76,23.76,0,0,0-21.11-11.77c-13.85,0-23.09,9.57-23.09,22.65S355.74,96,369.59,96c9.35,0,16.82-4.4,21.11-11.66Z"/><polygon class="cls-2" points="128.79 72.92 162.07 38.87 137.94 38.87 104.81 72.92 138.93 108.31 162.96 108.31 128.79 72.92"/><path class="cls-1" d="M110.76,61.2V38.87H89.92v8.64C84.68,41,77,37,67.11,37,47.83,37,33.94,52,33.94,73.59c0,20,12.18,34.62,29.57,36.38a35.52,35.52,0,0,0,3.59.18h.42l.29,7.53,22.53-14.19,6.33-4-6.33-3.34L66.5,83.59,66.78,91a16.64,16.64,0,0,1-4.08-2c-4.71-3.16-7.36-8.62-7.36-15.42,0-11.05,6.8-18.42,18-18.42a19.74,19.74,0,0,1,17,8.93V91.63L98.54,96l6.13,3.23-5.86,3.69-8.47,5.33v.1h20.42V84.72L102,75.63,99.37,72.9,102,70.19Z"/></g></svg>